<?xml version="1.0" encoding="utf-8"?>
<!-- Generator: Adobe Illustrator 24.2.3, SVG Export Plug-In . SVG Version: 6.00 Build 0)  -->
<svg version="1.1" id="Lager_1" xmlns="http://www.w3.org/2000/svg" xmlns:xlink="http://www.w3.org/1999/xlink" x="0px" y="0px"
	 viewBox="0 0 1456 424" style="enable-background:new 0 0 1456 424;" xml:space="preserve">
<style type="text/css">
	.st0{fill:#EFE5D8;}
	.st1{fill:#1E1D19;}
	.st2{fill:#DDCBB3;}
	.st3{fill:#302D23;}
</style>
<g>
	<g>
		<rect x="51" y="65" class="st0" width="16" height="79"/>
		<rect x="156" y="72" class="st0" width="16" height="79"/>
		<rect x="262" y="85" class="st0" width="16" height="79"/>
		<g>
			<path class="st1" d="M445,212H0V83c0,0,89.28,4.93,195,12c37.03,2.48,156,20,218,20c41.05,0,32,0,32,0V212z"/>
		</g>
		<g>
			<circle class="st2" cx="269.82" cy="156.82" r="20.18"/>
			<circle class="st2" cx="164.5" cy="156.82" r="20.18"/>
			<circle class="st2" cx="59.18" cy="156.82" r="20.18"/>
		</g>
		<g>
			<circle class="st0" cx="270" cy="157" r="14"/>
			<circle class="st0" cx="164.5" cy="157" r="14"/>
			<circle class="st0" cx="59" cy="157" r="14"/>
		</g>
		<path class="st1" d="M59,26c0,0-35,0-33,3s7,13,13,26s20,12,20,12s14,1,20-12s11-23,13-26S59,26,59,26z"/>
		<path class="st1" d="M164,34c0,0-35,0-33,3s7,13,13,26s20,12,20,12s14,1,20-12s11-23,13-26S164,34,164,34z"/>
		<path class="st1" d="M270,47c0,0-35,0-33,3s7,13,13,26s20,12,20,12s14,1,20-12s11-23,13-26S270,47,270,47z"/>
	</g>
	<g>
		<rect x="51" y="280" class="st0" width="16" height="79"/>
		<rect x="156" y="273" class="st0" width="16" height="79"/>
		<rect x="262" y="260" class="st0" width="16" height="79"/>
		<g>
			<path class="st1" d="M445,212H0v129c0,0,89.28-4.93,195-12c37.03-2.48,156-20,218-20c41.05,0,32,0,32,0V212z"/>
		</g>
		<g>
			<circle class="st2" cx="269.82" cy="267.18" r="20.18"/>
			<circle class="st2" cx="164.5" cy="267.18" r="20.18"/>
			<circle class="st2" cx="59.18" cy="267.18" r="20.18"/>
		</g>
		<g>
			<circle class="st0" cx="270" cy="267" r="14"/>
			<circle class="st0" cx="164.5" cy="267" r="14"/>
			<circle class="st0" cx="59" cy="267" r="14"/>
		</g>
		<path class="st1" d="M59,398c0,0-35,0-33-3s7-13,13-26s20-12,20-12s14-1,20,12s11,23,13,26S59,398,59,398z"/>
		<path class="st1" d="M164,390c0,0-35,0-33-3s7-13,13-26s20-12,20-12s14-1,20,12s11,23,13,26S164,390,164,390z"/>
		<path class="st1" d="M270,377c0,0-35,0-33-3s7-13,13-26s20-12,20-12s14-1,20,12s11,23,13,26S270,377,270,377z"/>
	</g>
</g>
<g>
	<rect x="445" y="115" class="st3" width="1007" height="194"/>
</g>
<g>
	<rect x="441" y="100" class="st2" width="13" height="224"/>
	<rect x="524.5" y="100" class="st2" width="13" height="224"/>
	<rect x="608" y="100" class="st2" width="13" height="224"/>
	<rect x="691.5" y="100" class="st2" width="13" height="224"/>
	<rect x="775" y="100" class="st2" width="13" height="224"/>
	<rect x="858.5" y="100" class="st2" width="13" height="224"/>
	<rect x="942" y="100" class="st2" width="13" height="224"/>
	<rect x="1025.5" y="100" class="st2" width="13" height="224"/>
	<rect x="1109" y="100" class="st2" width="13" height="224"/>
	<rect x="1192.5" y="100" class="st2" width="13" height="224"/>
	<rect x="1276" y="100" class="st2" width="13" height="224"/>
	<rect x="1359.5" y="100" class="st2" width="13" height="224"/>
	<rect x="1443" y="100" class="st2" width="13" height="224"/>
</g>
<circle class="st2" cx="655" cy="212" r="12"/>
<circle class="st2" cx="824" cy="212" r="12"/>
<circle class="st2" cx="990" cy="212" r="12"/>
<circle class="st2" cx="1242" cy="176" r="12"/>
<circle class="st2" cx="1242" cy="248" r="12"/>
</svg>
