<?xml version="1.0" encoding="utf-8"?>
<!-- Generator: Adobe Illustrator 24.2.3, SVG Export Plug-In . SVG Version: 6.00 Build 0)  -->
<svg version="1.1" id="Lager_1" xmlns="http://www.w3.org/2000/svg" xmlns:xlink="http://www.w3.org/1999/xlink" x="0px" y="0px"
	 viewBox="0 0 1015 224" style="enable-background:new 0 0 1015 224;" xml:space="preserve">
<style type="text/css">
	.st0{fill:#302D23;}
	.st1{fill:#DDCBB3;}
</style>
<g>
	<rect x="4" y="15" class="st0" width="1007" height="194"/>
</g>
<g>
	<rect y="0" class="st1" width="13" height="224"/>
	<rect x="83.5" y="0" class="st1" width="13" height="224"/>
	<rect x="167" y="0" class="st1" width="13" height="224"/>
	<rect x="250.5" y="0" class="st1" width="13" height="224"/>
	<rect x="334" y="0" class="st1" width="13" height="224"/>
	<rect x="417.5" y="0" class="st1" width="13" height="224"/>
	<rect x="501" y="0" class="st1" width="13" height="224"/>
	<rect x="584.5" y="0" class="st1" width="13" height="224"/>
	<rect x="668" y="0" class="st1" width="13" height="224"/>
	<rect x="751.5" y="0" class="st1" width="13" height="224"/>
	<rect x="835" y="0" class="st1" width="13" height="224"/>
	<rect x="918.5" y="0" class="st1" width="13" height="224"/>
	<rect x="1002" y="0" class="st1" width="13" height="224"/>
</g>
<circle class="st1" cx="214" cy="112" r="12"/>
<circle class="st1" cx="383" cy="112" r="12"/>
<circle class="st1" cx="549" cy="112" r="12"/>
<circle class="st1" cx="801" cy="76" r="12"/>
<circle class="st1" cx="801" cy="148" r="12"/>
</svg>
